<svg width="627" height="124" viewBox="0 0 627 124" fill="none" xmlns="http://www.w3.org/2000/svg">
<path d="M124.096 100L102.112 32.8H118.24L137.344 92.32H129.28L149.248 32.8H163.648L182.848 92.32H175.072L194.656 32.8H209.536L187.552 100H170.848L153.856 47.776H158.272L140.8 100H124.096ZM237.894 100.768C232.39 100.768 227.494 99.616 223.206 97.312C218.982 95.008 215.622 91.872 213.126 87.904C210.694 83.872 209.478 79.296 209.478 74.176C209.478 68.992 210.694 64.416 213.126 60.448C215.622 56.416 218.982 53.28 223.206 51.04C227.494 48.736 232.39 47.584 237.894 47.584C243.334 47.584 248.198 48.736 252.486 51.04C256.774 53.28 260.134 56.384 262.566 60.352C264.998 64.32 266.214 68.928 266.214 74.176C266.214 79.296 264.998 83.872 262.566 87.904C260.134 91.872 256.774 95.008 252.486 97.312C248.198 99.616 243.334 100.768 237.894 100.768ZM237.894 88.48C240.39 88.48 242.63 87.904 244.614 86.752C246.598 85.6 248.166 83.968 249.318 81.856C250.47 79.68 251.046 77.12 251.046 74.176C251.046 71.168 250.47 68.608 249.318 66.496C248.166 64.384 246.598 62.752 244.614 61.6C242.63 60.448 240.39 59.872 237.894 59.872C235.398 59.872 233.158 60.448 231.174 61.6C229.19 62.752 227.59 64.384 226.374 66.496C225.222 68.608 224.646 71.168 224.646 74.176C224.646 77.12 225.222 79.68 226.374 81.856C227.59 83.968 229.19 85.6 231.174 86.752C233.158 87.904 235.398 88.48 237.894 88.48ZM276.225 100V48.352H290.529V62.944L288.513 58.72C290.049 55.072 292.513 52.32 295.905 50.464C299.297 48.544 303.425 47.584 308.289 47.584V61.408C307.649 61.344 307.073 61.312 306.561 61.312C306.049 61.248 305.505 61.216 304.929 61.216C300.833 61.216 297.505 62.4 294.945 64.768C292.449 67.072 291.201 70.688 291.201 75.616V100H276.225ZM338.994 100.768C334.13 100.768 329.746 99.68 325.842 97.504C321.938 95.264 318.834 92.16 316.53 88.192C314.29 84.224 313.17 79.552 313.17 74.176C313.17 68.736 314.29 64.032 316.53 60.064C318.834 56.096 321.938 53.024 325.842 50.848C329.746 48.672 334.13 47.584 338.994 47.584C343.346 47.584 347.154 48.544 350.418 50.464C353.682 52.384 356.21 55.296 358.002 59.2C359.794 63.104 360.69 68.096 360.69 74.176C360.69 80.192 359.826 85.184 358.098 89.152C356.37 93.056 353.874 95.968 350.61 97.888C347.41 99.808 343.538 100.768 338.994 100.768ZM341.586 88.48C344.018 88.48 346.226 87.904 348.21 86.752C350.194 85.6 351.762 83.968 352.914 81.856C354.13 79.68 354.738 77.12 354.738 74.176C354.738 71.168 354.13 68.608 352.914 66.496C351.762 64.384 350.194 62.752 348.21 61.6C346.226 60.448 344.018 59.872 341.586 59.872C339.09 59.872 336.85 60.448 334.866 61.6C332.882 62.752 331.282 64.384 330.066 66.496C328.914 68.608 328.338 71.168 328.338 74.176C328.338 77.12 328.914 79.68 330.066 81.856C331.282 83.968 332.882 85.6 334.866 86.752C336.85 87.904 339.09 88.48 341.586 88.48ZM355.122 100V89.44L355.41 74.08L354.45 58.816V28.768H369.426V100H355.122ZM398.647 59.872H430.999V71.968H398.647V59.872ZM399.799 87.52H436.375V100H384.343V32.8H435.127V45.28H399.799V87.52ZM472.372 100.768C466.804 100.768 461.844 99.648 457.492 97.408C453.14 95.104 449.716 91.936 447.22 87.904C444.788 83.872 443.572 79.296 443.572 74.176C443.572 68.992 444.788 64.416 447.22 60.448C449.716 56.416 453.14 53.28 457.492 51.04C461.844 48.736 466.804 47.584 472.372 47.584C477.812 47.584 482.548 48.736 486.58 51.04C490.612 53.28 493.588 56.512 495.508 60.736L483.892 66.976C482.548 64.544 480.852 62.752 478.804 61.6C476.82 60.448 474.644 59.872 472.276 59.872C469.716 59.872 467.412 60.448 465.364 61.6C463.316 62.752 461.684 64.384 460.468 66.496C459.316 68.608 458.74 71.168 458.74 74.176C458.74 77.184 459.316 79.744 460.468 81.856C461.684 83.968 463.316 85.6 465.364 86.752C467.412 87.904 469.716 88.48 472.276 88.48C474.644 88.48 476.82 87.936 478.804 86.848C480.852 85.696 482.548 83.872 483.892 81.376L495.508 87.712C493.588 91.872 490.612 95.104 486.58 97.408C482.548 99.648 477.812 100.768 472.372 100.768ZM535.242 47.584C539.338 47.584 542.986 48.416 546.186 50.08C549.45 51.68 552.01 54.176 553.866 57.568C555.722 60.896 556.65 65.184 556.65 70.432V100H541.674V72.736C541.674 68.576 540.746 65.504 538.89 63.52C537.098 61.536 534.538 60.544 531.21 60.544C528.842 60.544 526.698 61.056 524.778 62.08C522.922 63.04 521.45 64.544 520.362 66.592C519.338 68.64 518.826 71.264 518.826 74.464V100H503.85V28.768H518.826V62.656L515.466 58.336C517.322 54.88 519.978 52.224 523.434 50.368C526.89 48.512 530.826 47.584 535.242 47.584ZM595.176 100.768C589.672 100.768 584.776 99.616 580.488 97.312C576.264 95.008 572.904 91.872 570.408 87.904C567.976 83.872 566.76 79.296 566.76 74.176C566.76 68.992 567.976 64.416 570.408 60.448C572.904 56.416 576.264 53.28 580.488 51.04C584.776 48.736 589.672 47.584 595.176 47.584C600.616 47.584 605.48 48.736 609.768 51.04C614.056 53.28 617.416 56.384 619.848 60.352C622.28 64.32 623.496 68.928 623.496 74.176C623.496 79.296 622.28 83.872 619.848 87.904C617.416 91.872 614.056 95.008 609.768 97.312C605.48 99.616 600.616 100.768 595.176 100.768ZM595.176 88.48C597.672 88.48 599.912 87.904 601.896 86.752C603.88 85.6 605.448 83.968 606.6 81.856C607.752 79.68 608.328 77.12 608.328 74.176C608.328 71.168 607.752 68.608 606.6 66.496C605.448 64.384 603.88 62.752 601.896 61.6C599.912 60.448 597.672 59.872 595.176 59.872C592.68 59.872 590.44 60.448 588.456 61.6C586.472 62.752 584.872 64.384 583.656 66.496C582.504 68.608 581.928 71.168 581.928 74.176C581.928 77.12 582.504 79.68 583.656 81.856C584.872 83.968 586.472 85.6 588.456 86.752C590.44 87.904 592.68 88.48 595.176 88.48Z" fill="url(#paint0_linear_18_47)"/>
<path d="M71.7949 38.4C68.9744 38.4 66.5607 37.48 64.5538 35.64C62.547 33.8 61.5419 31.52 61.5385 28.8V9.6C61.5385 6.88 62.5436 4.6 64.5538 2.76C66.5641 0.92 68.9778 0 71.7949 0C74.7009 0 77.1367 0.92 79.1026 2.76C81.0684 4.6 82.0513 6.88 82.0513 9.6V28.8C82.0513 31.52 81.0684 33.8 79.1026 35.64C77.1367 37.48 74.7009 38.4 71.7949 38.4ZM10.2564 96C7.4359 96 5.02222 95.0608 3.01538 93.1824C1.00855 91.304 0.0034188 89.0432 0 86.4V9.6C0 6.96 1.00513 4.7008 3.01538 2.8224C5.02564 0.944 7.43932 0.0032 10.2564 0H51.2821V9.6H10.2564V86.4H66.6667V76.8H76.9231V86.4C76.9231 89.04 75.9197 91.3008 73.9128 93.1824C71.906 95.064 69.4906 96.0032 66.6667 96H10.2564ZM20.5128 76.8V67.2H56.4103V76.8H20.5128ZM20.5128 62.4V52.8H46.1538V62.4H20.5128ZM76.9231 67.2H66.6667V54.72C60.0855 53.6 54.5932 50.6208 50.1897 45.7824C45.7863 40.944 43.5863 35.2832 43.5897 28.8H53.8462C53.8462 33.44 55.5983 37.4 59.1026 40.68C62.6068 43.96 66.8376 45.6 71.7949 45.6C76.8376 45.6 81.0906 43.96 84.5539 40.68C88.0171 37.4 89.747 33.44 89.7436 28.8H100C100 35.28 97.8205 40.9408 93.4615 45.7824C89.1026 50.624 83.5897 53.6032 76.9231 54.72V67.2Z" fill="#BEF0FF"/>
<defs>
<linearGradient id="paint0_linear_18_47" x1="100" y1="65.5" x2="627" y2="65.5" gradientUnits="userSpaceOnUse">
<stop offset="0.34" stop-color="#BEF0FF"/>
<stop offset="0.675" stop-color="#FE9841"/>
</linearGradient>
</defs>
</svg>
